<?xml version="1.0" encoding="UTF-8" standalone="no"?>
<svg
   width="61.91mm"
   height="6.4761mm"
   version="1.1"
   viewBox="0 0 61.91 6.4761"
   xml:space="preserve"
   id="svg12"
   sodipodi:docname="mayuscula 2.svg"
   inkscape:version="1.3 (0e150ed, 2023-07-21)"
   xmlns:inkscape="http://www.inkscape.org/namespaces/inkscape"
   xmlns:sodipodi="http://sodipodi.sourceforge.net/DTD/sodipodi-0.dtd"
   xmlns="http://www.w3.org/2000/svg"
   xmlns:svg="http://www.w3.org/2000/svg"><defs
     id="defs12" /><sodipodi:namedview
     id="namedview12"
     pagecolor="#505050"
     bordercolor="#ffffff"
     borderopacity="1"
     inkscape:showpageshadow="0"
     inkscape:pageopacity="0"
     inkscape:pagecheckerboard="1"
     inkscape:deskcolor="#505050"
     inkscape:document-units="mm"
     inkscape:zoom="1.005376"
     inkscape:cx="17.406423"
     inkscape:cy="-101.45458"
     inkscape:window-width="1680"
     inkscape:window-height="919"
     inkscape:window-x="0"
     inkscape:window-y="25"
     inkscape:window-maximized="0"
     inkscape:current-layer="g11" /><g
     transform="translate(-73.074 -168.45)"
     id="g12"><g
       stroke-width="0"
       id="g11"><path
         d="m 103.43799,143.71762 v -0.76644 l 2.76719,-0.004 v 2.42407 c -0.42481,0.33866 -0.86298,0.59414 -1.31452,0.76644 -0.45155,0.16933 -0.91497,0.25399 -1.39028,0.25399 -0.64167,0 -1.22541,-0.13665 -1.75122,-0.40995 -0.52284,-0.27627 -0.91794,-0.67435 -1.1853,-1.19422 -0.26736,-0.51987 -0.40104,-1.10063 -0.40104,-1.7423 0,-0.63573 0.13219,-1.22838 0.39658,-1.77795 0.26736,-0.55255 0.65058,-0.9625 1.14966,-1.22986 0.49907,-0.26736 1.0739,-0.40104 1.72448,-0.40104 0.47234,0 0.89863,0.0772 1.27888,0.23171 0.38321,0.15151 0.68325,0.36391 0.90011,0.63721 0.21686,0.27331 0.38173,0.62979 0.49462,1.06945 l -0.7798,0.21388 c -0.098,-0.33271 -0.21983,-0.59413 -0.3654,-0.78425 -0.14556,-0.19013 -0.35351,-0.34163 -0.62384,-0.45452 -0.27033,-0.11585 -0.57037,-0.17378 -0.90012,-0.17378 -0.3951,0 -0.73673,0.0609 -1.02488,0.18269 -0.28816,0.11883 -0.52136,0.27627 -0.6996,0.47234 -0.17527,0.19607 -0.31192,0.41144 -0.40995,0.64612 -0.16636,0.40401 -0.24954,0.84219 -0.24954,1.31453 0,0.58225 0.0995,1.06944 0.29855,1.46157 0.20201,0.39213 0.49462,0.68326 0.87784,0.87338 0.38322,0.19013 0.7902,0.28519 1.22095,0.28519 0.37431,0 0.7397,-0.0713 1.09618,-0.21389 0.35648,-0.14557 0.62681,-0.30004 0.811,-0.46343 v -1.21649 z m 4.05498,2.56221 v -6.53252 h 2.89641 c 0.58225,0 1.02488,0.0594 1.32789,0.17824 0.30301,0.11585 0.54512,0.32232 0.72633,0.61939 0.18121,0.29707 0.27182,0.62533 0.27182,0.98478 0,0.46342 -0.15002,0.85406 -0.45006,1.17193 -0.30004,0.31786 -0.76347,0.51987 -1.39028,0.60602 0.22875,0.10991 0.40253,0.21834 0.52136,0.32528 0.25251,0.23171 0.49165,0.52136 0.71742,0.86893 l 1.13628,1.77795 h -1.08727 l -0.86446,-1.35909 c -0.25251,-0.39213 -0.46046,-0.69216 -0.62385,-0.90011 -0.16339,-0.20795 -0.31043,-0.35351 -0.44114,-0.43669 -0.12774,-0.0832 -0.25845,-0.14111 -0.39213,-0.17379 -0.098,-0.0208 -0.25845,-0.0312 -0.48125,-0.0312 h -1.0026 v 2.90087 z m 0.86447,-3.64948 h 1.85815 c 0.3951,0 0.70405,-0.0401 0.92686,-0.12031 0.2228,-0.0832 0.39213,-0.21389 0.50798,-0.39213 0.11586,-0.18121 0.17379,-0.37728 0.17379,-0.58819 0,-0.30895 -0.11289,-0.56295 -0.33866,-0.76198 -0.2228,-0.19904 -0.57631,-0.29856 -1.06053,-0.29856 h -2.06759 z m 9.99929,-2.88304 h 0.86447 v 3.77424 c 0,0.65652 -0.0743,1.17788 -0.2228,1.56407 -0.14853,0.38619 -0.41738,0.70108 -0.80654,0.94467 -0.38619,0.24063 -0.89417,0.36094 -1.52396,0.36094 -0.61196,0 -1.11252,-0.10546 -1.50167,-0.31638 -0.38916,-0.21092 -0.66692,-0.51541 -0.83328,-0.91348 -0.16636,-0.40104 -0.24954,-0.94765 -0.24954,-1.63982 v -3.77424 h 0.86447 v 3.76979 c 0,0.5674 0.052,0.98627 0.15596,1.2566 0.10695,0.26736 0.28816,0.47382 0.54364,0.61938 0.25845,0.14557 0.57334,0.21835 0.94467,0.21835 0.63573,0 1.08876,-0.14408 1.35909,-0.43224 0.27033,-0.28815 0.40549,-0.84218 0.40549,-1.66209 z m 2.30377,6.53252 v -6.53252 h 2.46417 c 0.43372,0 0.76495,0.0208 0.9937,0.0624 0.32083,0.0535 0.58968,0.15596 0.80653,0.30747 0.21686,0.14853 0.39065,0.35797 0.52136,0.6283 0.13368,0.27033 0.20052,0.56739 0.20052,0.8912 0,0.55551 -0.17676,1.02637 -0.53027,1.41256 -0.35351,0.38321 -0.9922,0.57482 -1.91608,0.57482 h -1.67547 v 2.65579 z m 0.86446,-3.42668 h 1.68883 c 0.55849,0 0.95508,-0.10397 1.18976,-0.31192 0.23469,-0.20795 0.35203,-0.50056 0.35203,-0.87783 0,-0.27331 -0.0698,-0.50651 -0.20944,-0.6996 -0.13665,-0.19607 -0.31786,-0.32529 -0.54363,-0.38767 -0.14557,-0.0386 -0.41441,-0.0579 -0.80654,-0.0579 h -1.67101 z m 4.95955,0.24508 c 0,-1.08429 0.29113,-1.93242 0.87338,-2.54438 0.58225,-0.61493 1.33383,-0.9224 2.25474,-0.9224 0.60305,0 1.14668,0.14408 1.6309,0.43224 0.48422,0.28815 0.85258,0.69068 1.10509,1.20758 0.25548,0.51393 0.38322,1.09766 0.38322,1.75121 0,0.66246 -0.13368,1.25511 -0.40104,1.77795 -0.26736,0.52284 -0.64612,0.91943 -1.13629,1.18976 -0.49016,0.26736 -1.01894,0.40104 -1.58634,0.40104 -0.61493,0 -1.1645,-0.14853 -1.64872,-0.4456 -0.48422,-0.29707 -0.8511,-0.70257 -1.10064,-1.2165 -0.24953,-0.51393 -0.3743,-1.05756 -0.3743,-1.6309 z m 0.8912,0.0134 c 0,0.78723 0.21092,1.40811 0.63275,1.86262 0.42481,0.45154 0.95656,0.67731 1.59526,0.67731 0.65057,0 1.18529,-0.22874 1.60416,-0.68623 0.42184,-0.45748 0.63276,-1.10657 0.63276,-1.94728 0,-0.53175 -0.0906,-0.99517 -0.27182,-1.39027 -0.17824,-0.39807 -0.44114,-0.70554 -0.78871,-0.9224 -0.3446,-0.21983 -0.73227,-0.32974 -1.16302,-0.32974 -0.61196,0 -1.13926,0.21092 -1.58189,0.63275 -0.43966,0.41887 -0.65949,1.11995 -0.65949,2.10324 z m 11.25144,3.16823 v -1.56406 h -2.83403 v -0.73525 l 2.98108,-4.23321 h 0.65503 v 4.23321 h 0.88229 v 0.73525 h -0.88229 v 1.56406 z m 0,-2.29931 v -2.94542 l -2.04531,2.94542 z"
         id="text12"
         style="font-size:9.12592px;line-height:0.9;font-family:Arial;-inkscape-font-specification:Arial;letter-spacing:0px;word-spacing:0px;fill:#236192;fill-opacity:1"
         aria-label="CMS - GRUPO 4"
         sodipodi:nodetypes="cccccscsscsscsccccscccscssccccccscsssccccccsccsccccsccscsccccsscsscsccsccssscccscccscsccccsssccsccscsscsscssssscscsccscscccccccccccccccc" /><path
         d="m 76.652879,143.99012 0.864467,0.21834 c -0.181211,0.70999 -0.507986,1.25214 -0.980324,1.62645 -0.469367,0.37133 -1.044193,0.557 -1.724478,0.557 -0.70405,0 -1.277391,-0.14259 -1.720022,-0.42778 -0.43966,-0.28815 -0.775346,-0.70405 -1.007059,-1.24768 -0.228743,-0.54363 -0.343114,-1.12737 -0.343114,-1.75122 0,-0.68028 0.129225,-1.27293 0.387674,-1.77795 0.261419,-0.50799 0.631269,-0.89269 1.109548,-1.15411 0.481249,-0.26439 1.01003,-0.39658 1.586341,-0.39658 0.653549,0 1.203125,0.16636 1.648726,0.49907 0.445602,0.33272 0.756038,0.8006 0.931307,1.40365 l -0.851099,0.20052 c -0.151504,-0.47531 -0.371334,-0.82139 -0.65949,-1.03825 -0.288155,-0.21686 -0.650578,-0.32529 -1.087268,-0.32529 -0.502044,0 -0.922395,0.12031 -1.261052,0.36093 -0.335687,0.24063 -0.571856,0.56443 -0.708507,0.97142 -0.136651,0.40401 -0.204976,0.82139 -0.204976,1.25214 0,0.55551 0.08021,1.04122 0.240624,1.45711 0.163387,0.41293 0.415895,0.72188 0.757523,0.92686 0.341628,0.20497 0.711477,0.30746 1.109548,0.30746 0.484221,0 0.894174,-0.13962 1.22986,-0.41887 0.335687,-0.27924 0.562944,-0.69365 0.681771,-1.24322 z m 1.902719,2.29039 v -6.53252 h 1.301156 l 1.546238,4.62534 c 0.142592,0.43075 0.246566,0.75307 0.311921,0.96696 0.07427,-0.23765 0.190123,-0.58671 0.347569,-1.04716 l 1.564062,-4.54514 h 1.16302 v 6.53252 h -0.833275 v -5.46753 l -1.898263,5.46753 h -0.779803 l -1.88935,-5.56111 v 5.56111 z m 7.334602,-2.09879 0.815451,-0.0713 c 0.03862,0.32677 0.12774,0.59562 0.267361,0.80654 0.142592,0.20795 0.362422,0.37727 0.65949,0.50798 0.297067,0.12774 0.631268,0.19161 1.002603,0.19161 0.329745,0 0.620872,-0.049 0.87338,-0.14705 0.252507,-0.098 0.43966,-0.23171 0.561458,-0.40104 0.124768,-0.1723 0.187152,-0.35945 0.187152,-0.56146 0,-0.20497 -0.05941,-0.38321 -0.17824,-0.53472 -0.118827,-0.15447 -0.314892,-0.2837 -0.588195,-0.38767 -0.175269,-0.0683 -0.562943,-0.17379 -1.16302,-0.31638 -0.600077,-0.14556 -1.020427,-0.28221 -1.261052,-0.40995 -0.311921,-0.16339 -0.54512,-0.36539 -0.699595,-0.60602 -0.151504,-0.24359 -0.227256,-0.51541 -0.227256,-0.81545 0,-0.32975 0.09358,-0.63721 0.280729,-0.9224 0.187153,-0.28815 0.460455,-0.5065 0.819907,-0.65503 0.359451,-0.14853 0.759007,-0.2228 1.198668,-0.2228 0.48422,0 0.910512,0.0787 1.278876,0.23617 0.371335,0.15447 0.65652,0.38321 0.855555,0.68622 0.199035,0.30301 0.30598,0.64613 0.320833,1.02934 l -0.828818,0.0624 c -0.04456,-0.41293 -0.196065,-0.72485 -0.454514,-0.93577 -0.255478,-0.21091 -0.634239,-0.31637 -1.136284,-0.31637 -0.522839,0 -0.904571,0.0966 -1.145196,0.28964 -0.237654,0.19012 -0.356481,0.42035 -0.356481,0.69068 0,0.23469 0.08466,0.42778 0.253992,0.57928 0.166358,0.15151 0.600077,0.30747 1.301157,0.46788 0.704051,0.15745 1.186786,0.29558 1.448205,0.41441 0.380247,0.17527 0.660976,0.39808 0.842187,0.66841 0.181211,0.26736 0.271817,0.57631 0.271817,0.92685 0,0.34757 -0.09952,0.67583 -0.298553,0.98478 -0.199035,0.30598 -0.485706,0.54512 -0.860011,0.71742 -0.371335,0.16933 -0.7902,0.25399 -1.256596,0.25399 -0.591165,0 -1.087269,-0.0861 -1.48831,-0.25845 -0.398071,-0.1723 -0.711477,-0.43075 -0.940219,-0.77535 -0.225771,-0.34757 -0.344598,-0.7397 -0.356481,-1.17639 z m 8.502077,0.13814 v -0.80654 h 2.464177 v 0.80654 z"
         id="path12"
         style="font-size:9.12592px;line-height:0.9;font-family:Arial;-inkscape-font-specification:Arial;letter-spacing:0px;word-spacing:0px;display:inline;fill:#6e6e6e;fill-opacity:1"
         aria-label="CMS - GRUPO 4"
         sodipodi:nodetypes="cccsccsccscccssccsccsccccccccccccccccccccccsscscccccscsscscccscsccccsccscccccccc" /><text
         xml:space="preserve"
         style="font-size:4.28508px;line-height:0.9;font-family:Arial;-inkscape-font-specification:Arial;letter-spacing:0px;word-spacing:0px;fill:#236192;fill-opacity:1;stroke-width:0"
         x="112.50452"
         y="150.05916"
         id="text1"><tspan
           sodipodi:role="line"
           id="tspan1"
           style="fill:#236192;fill-opacity:1;stroke-width:0"
           x="112.50452"
           y="150.05916">Administración</tspan></text></g></g></svg>
