<?xml version="1.0" encoding="UTF-8"?>
<svg width="61.658mm" height="9.5298mm" version="1.1" viewBox="0 0 61.658 9.5298" xml:space="preserve" xmlns="http://www.w3.org/2000/svg"><g transform="translate(-86.993 -145.26)"><g transform="matrix(.99593 0 0 .99593 14.216 -22.506)" stroke-width="0"><path d="m134.98 174.8h-4.2086v-0.87262q0.43839-0.37577 0.87679-0.75154 0.44257-0.37577 0.82252-0.74736 0.80164-0.77659 1.0981-1.2317 0.29644-0.45927 0.29644-0.98952 0-0.48433-0.32149-0.75572-0.31732-0.27556-0.88932-0.27556-0.37995 0-0.82252 0.13361-0.44257 0.1336-0.86427 0.40917h-0.0417v-0.8768q0.29644-0.14613 0.78911-0.26721 0.49685-0.12108 0.9603-0.12108 0.95612 0 1.4989 0.46345 0.54278 0.45927 0.54278 1.2484 0 0.35489-0.0919 0.66385-0.0877 0.30479-0.26303 0.58036-0.16284 0.25886-0.38412 0.50937-0.21711 0.25052-0.53025 0.55531-0.44675 0.43839-0.92273 0.85174-0.47597 0.40917-0.88932 0.75989h3.3444z" fill="#236192"/><path d="m129.46 172.46h-2.6053v-0.75572h2.6053z" fill="#236192"/><path d="m122.86 168.45c-0.42865 0-0.82496 0.0723-1.1896 0.21704-0.36185 0.14474-0.66559 0.35354-0.91054 0.62632-0.25608 0.2867-0.45085 0.63199-0.58446 1.0356-0.1336 0.40082-0.2005 0.85457-0.2005 1.3612 0 0.51495 0.0669 0.97274 0.2005 1.3736 0.1364 0.40082 0.32982 0.73885 0.58033 1.0144s0.55426 0.48571 0.91054 0.63045c0.35906 0.14474 0.75672 0.21756 1.1937 0.21756 0.44814 0 0.84631-0.0715 1.1942-0.21343 0.35072-0.14195 0.65394-0.35345 0.91002-0.63458 0.24772-0.27 0.4398-0.60667 0.57619-1.0103 0.13917-0.40638 0.20877-0.86553 0.20877-1.3777s-0.0677-0.96996-0.20412-1.3736c-0.13361-0.40361-0.32755-0.74485-0.58084-1.0232-0.24774-0.27-0.54961-0.47745-0.90589-0.62219-0.3535-0.14752-0.75302-0.22117-1.1984-0.22117zm4e-3 0.71417c0.62628 0 1.1207 0.2196 1.4826 0.65939 0.36185 0.437 0.54261 1.0593 0.54261 1.8666 0 0.81556-0.18398 1.4406-0.55139 1.8748-0.36464 0.43144-0.85589 0.64699-1.4738 0.64699-0.61794 0-1.1105-0.21555-1.478-0.64699-0.36741-0.43422-0.55087-1.0593-0.55087-1.8748 0-0.80721 0.1794-1.4296 0.53847-1.8666 0.36185-0.43979 0.85849-0.65939 1.4904-0.65939z" fill="#236192"/><path d="m115.17 168.58v6.2167h0.82682v-2.3172h0.82631c0.44536 0 0.81464-0.0529 1.1069-0.15865 0.29226-0.10855 0.54532-0.26987 0.75964-0.48421 0.17258-0.17257 0.30638-0.37597 0.40101-0.60978 0.0974-0.23659 0.14573-0.49287 0.14573-0.76843 0-0.36185-0.065-0.66102-0.19585-0.89762-0.12804-0.2366-0.31066-0.43407-0.54726-0.59273-0.20041-0.13358-0.42998-0.23122-0.68884-0.29248-0.25887-0.064-0.57477-0.0956-0.94775-0.0956zm0.82682 0.70952h0.81804c0.26165 0 0.47771 0.0194 0.64751 0.0584 0.17257 0.0362 0.32528 0.0977 0.45888 0.18396 0.1531 0.10021 0.26747 0.22944 0.34262 0.38809 0.0751 0.15866 0.11265 0.34533 0.11265 0.55966 0 0.18371-0.0281 0.34909-0.0837 0.49661-0.0529 0.14753-0.14461 0.28807-0.27544 0.42168-0.13082 0.13079-0.30025 0.22709-0.50901 0.28836-0.20876 0.0585-0.4804 0.0873-0.81442 0.0873h-0.69712z" fill="#236192"/><path d="m113.59 172.3q0 0.67639-0.15031 1.1816-0.14613 0.50102-0.48432 0.83504-0.32149 0.31732-0.75154 0.46345-0.43004 0.14613-1.002 0.14613-0.58453 0-1.0188-0.15448-0.43422-0.15449-0.73066-0.4551-0.33819-0.34237-0.4885-0.82669-0.14613-0.48433-0.14613-1.1899v-3.7201h0.82669v3.7619q0 0.5052 0.0668 0.79746 0.071 0.29226 0.23381 0.53025 0.18371 0.27139 0.49685 0.40917 0.31732 0.13778 0.75989 0.13778 0.44675 0 0.75989-0.1336 0.31314-0.13778 0.50102-0.41335 0.16284-0.23799 0.22964-0.54278 0.071-0.30896 0.071-0.76406v-3.7827h0.82669z" fill="#236192"/><path d="m102.96 168.58v6.2167h0.82631v-2.4717h1.1648l2.0795 2.4717h1.0733l-2.3384-2.7182c0.39525-0.15309 0.70575-0.37997 0.93121-0.68058 0.22546-0.3034 0.33796-0.67892 0.33796-1.1271 0-0.33124-0.0642-0.60423-0.19224-0.81856-0.12525-0.21711-0.3006-0.39651-0.52606-0.53847-0.20041-0.12524-0.42542-0.21156-0.67593-0.25889-0.25051-0.0501-0.5637-0.0749-0.93948-0.0749zm0.82631 0.70952h0.97307c0.22267 0 0.4161 0.0167 0.58032 0.0501 0.16423 0.0306 0.30613 0.0862 0.42582 0.16691 0.14471 0.0946 0.24776 0.21171 0.30902 0.35089 0.064 0.13638 0.0961 0.29366 0.0961 0.4718 0 0.23382-0.0307 0.42724-0.092 0.58033-0.0585 0.1503-0.15018 0.2841-0.27544 0.40101-0.13639 0.12524-0.30229 0.21156-0.49713 0.2589-0.19484 0.0445-0.42306 0.0667-0.68471 0.0667h-0.83509z" fill="#236192"/><path d="m101.52 174.34q-0.50938 0.23381-1.1148 0.40917-0.60123 0.17118-1.1649 0.17118-0.72649 0-1.3319-0.20041-0.6054-0.20041-1.0313-0.60123-0.43005-0.405-0.66386-1.0104-0.23381-0.60958-0.23381-1.4238 0-1.4906 0.86844-2.3506 0.87262-0.86427 2.3924-0.86427 0.53025 0 1.0814 0.12943 0.55531 0.12526 1.1941 0.43005v0.98117h-0.0752q-0.12943-0.1002-0.37577-0.26304-0.24634-0.16283-0.48432-0.27138-0.28809-0.12944-0.65551-0.21294-0.36324-0.0877-0.82669-0.0877-1.0438 0-1.6534 0.67221-0.6054 0.66803-0.6054 1.812 0 1.2066 0.63463 1.8788 0.63463 0.66803 1.7285 0.66803 0.40082 0 0.79746-0.0793 0.40082-0.0793 0.70144-0.20459v-1.524h-1.6659v-0.72648h2.4843z" fill="#236192"/><path d="m94.86 172.46h-2.6053v-0.75572h2.6053z" fill="#6e6e6e"/><path d="m91.124 173.02q0 0.36325-0.17118 0.71814-0.16701 0.35489-0.4718 0.60123-0.33402 0.26721-0.78076 0.41752-0.44257 0.15031-1.0689 0.15031-0.67221 0-1.2108-0.12526-0.53443-0.12525-1.0897-0.37159v-1.0354h0.05845q0.4718 0.39247 1.0897 0.6054 0.61793 0.21294 1.1607 0.21294 0.76824 0 1.1941-0.28809 0.43005-0.28809 0.43005-0.76824 0-0.41335-0.20458-0.60958-0.20041-0.19624-0.61376-0.30479-0.31314-0.0835-0.68056-0.13778-0.36324-0.0543-0.77241-0.13778-0.82669-0.17536-1.2275-0.59706-0.39664-0.42587-0.39664-1.1064 0-0.78076 0.65968-1.2776 0.65968-0.50103 1.6743-0.50103 0.65551 0 1.2025 0.12526 0.54695 0.12525 0.96865 0.30896v0.977h-0.05845q-0.35489-0.30061-0.93525-0.49685-0.57618-0.20041-1.1816-0.20041-0.66386 0-1.0689 0.27557-0.40082 0.27556-0.40082 0.70978 0 0.3883 0.20041 0.60958 0.20041 0.22129 0.70561 0.33819 0.26721 0.0585 0.75989 0.14196 0.49268 0.0835 0.83504 0.17118 0.69308 0.18371 1.0438 0.55531 0.35072 0.37159 0.35072 1.0396z" fill="#6e6e6e"/><path d="m84.936 174.8h-0.82669v-5.3568l-1.7285 3.645h-0.49268l-1.716-3.645v5.3568h-0.77241v-6.2169h1.1273l1.6576 3.4612 1.6033-3.4612h1.1482z" fill="#6e6e6e"/><path d="m78.231 174.35q-0.22964 0.1002-0.41752 0.18788-0.18371 0.0877-0.48432 0.18371-0.25469 0.0793-0.5553 0.13361-0.29644 0.0584-0.65551 0.0584-0.67638 0-1.2317-0.18789-0.55113-0.19205-0.9603-0.59705-0.40082-0.39665-0.62628-1.0062-0.22546-0.61375-0.22546-1.4237 0-0.76824 0.21711-1.3736 0.21711-0.6054 0.62628-1.0229 0.39664-0.405 0.95612-0.61793 0.56365-0.21294 1.2484-0.21294 0.50102 0 0.99788 0.12108 0.50102 0.12108 1.1106 0.42587v0.98118h-0.06263q-0.51355-0.43005-1.0188-0.62628-0.5052-0.19624-1.0814-0.19624-0.4718 0-0.85174 0.15448-0.37577 0.15031-0.67221 0.4718-0.28809 0.31314-0.45092 0.79329-0.15866 0.47598-0.15866 1.1023 0 0.65551 0.17536 1.1273 0.17953 0.4718 0.45927 0.76824 0.29226 0.30897 0.68056 0.45928 0.39247 0.14613 0.82669 0.14613 0.59706 0 1.119-0.20459 0.5219-0.20458 0.977-0.61375h0.05845z" fill="#6e6e6e"/></g><text x="125.31375" y="154.69373" fill="#236192" font-family="Sans" font-size="3.175px" stroke="#236192" stroke-width=".1" xml:space="preserve"><tspan x="125.31375" y="154.69373" fill="#236192" stroke="#236192" stroke-width=".1">Administración</tspan></text></g></svg>